<svg width="84" height="40" viewBox="0 0 84 40" fill="none" xmlns="http://www.w3.org/2000/svg">
<path d="M18.9062 10.6797V29.1367H17.5391L6.68359 17.9531V29H2.88281V10.543H4.25L15.1055 21.8906V10.6797H18.9062ZM28.8164 14.8359C30.1654 14.8359 31.3229 15.1276 32.2891 15.7109C33.2734 16.2943 34.0208 17.1055 34.5312 18.1445C35.0599 19.1654 35.3242 20.3503 35.3242 21.6992V23.1758H25.3164C25.4987 24.1055 25.9544 24.8529 26.6836 25.418C27.4128 25.9831 28.306 26.2656 29.3633 26.2656C30.3659 26.2656 31.2773 26.0651 32.0977 25.6641C32.918 25.263 33.5742 24.8529 34.0664 24.4336L34.0391 27.6602C33.6016 28.043 32.9453 28.4349 32.0703 28.8359C31.2135 29.2188 30.2656 29.4102 29.2266 29.4102C27.8594 29.4102 26.6107 29.1003 25.4805 28.4805C24.3685 27.8607 23.4753 27.013 22.8008 25.9375C22.1445 24.862 21.8164 23.6315 21.8164 22.2461C21.8164 20.8971 22.1172 19.6667 22.7188 18.5547C23.3203 17.4427 24.1497 16.5495 25.207 15.875C26.2643 15.1823 27.4674 14.8359 28.8164 14.8359ZM28.7344 17.8711C27.8776 17.8711 27.1576 18.1354 26.5742 18.6641C25.9909 19.1927 25.5898 19.9036 25.3711 20.7969H31.9883C31.9154 19.8125 31.5508 19.0833 30.8945 18.6094C30.2383 18.1172 29.5182 17.8711 28.7344 17.8711ZM50.7578 15.1914L45.3438 21.9453L50.9492 29H46.6016L43.1562 24.1875L39.7109 29H35.3633L40.9688 21.9453L35.5547 15.1914H39.6562L43.1562 19.6211L46.6562 15.1914H50.7578ZM57.2227 11.1719V15.1914H61.0508V18.0898H57.2227V24.0508C57.2227 24.6706 57.3594 25.1628 57.6328 25.5273C57.9245 25.8737 58.3529 26.0469 58.918 26.0469C59.4102 26.0469 59.8294 25.9922 60.1758 25.8828C60.5404 25.7734 60.8776 25.6185 61.1875 25.418V28.1797C60.8411 28.526 60.4036 28.8177 59.875 29.0547C59.3646 29.2917 58.7174 29.4102 57.9336 29.4102C56.694 29.4102 55.6823 29.0182 54.8984 28.2344C54.1328 27.4323 53.75 26.3385 53.75 24.9531V18.0898H51.2617V16.3125C52.1367 16.0026 52.9388 15.4193 53.668 14.5625C54.4154 13.7057 55.0078 12.5755 55.4453 11.1719H57.2227ZM70.1797 12.7852V16.5586L77.7266 20.7148L70.1797 25.2266V29L82.0742 21.4531V20.0586L70.1797 12.7852Z" fill="#232536"/>
</svg>
