<svg width="73" height="32" viewBox="0 0 73 32" fill="none" xmlns="http://www.w3.org/2000/svg">
<path d="M11.9844 10.1016V13.3359L5.51562 16.8984L11.9844 20.7656V24L1.78906 17.5312V16.3359L11.9844 10.1016ZM29.0234 8.29688C29.7578 8.29688 30.4766 8.42188 31.1797 8.67188C31.8828 8.92188 32.5156 9.28906 33.0781 9.77344C33.6562 10.2578 34.1094 10.8438 34.4375 11.5312C34.7812 12.2031 34.9531 12.9766 34.9531 13.8516C34.9531 14.9141 34.6797 15.8594 34.1328 16.6875C33.6016 17.5 32.8906 18.1406 32 18.6094C31.1094 19.0781 30.1406 19.3125 29.0938 19.3125C28.3906 19.3125 27.7578 19.2422 27.1953 19.1016C26.6328 18.9609 26.1641 18.7969 25.7891 18.6094V24H22.5312V8.29688H29.0234ZM25.7891 11.3438V15.9844C26.1328 16.125 26.5469 16.25 27.0312 16.3594C27.5312 16.4531 28.0391 16.5 28.5547 16.5C29.4922 16.5 30.2344 16.2422 30.7812 15.7266C31.3438 15.1953 31.625 14.5703 31.625 13.8516C31.625 13.0234 31.3125 12.3984 30.6875 11.9766C30.0625 11.5547 29.3281 11.3438 28.4844 11.3438H25.7891ZM45.1719 15.4922C44.6719 15.2109 44.1484 15.0703 43.6016 15.0703C42.9141 15.0703 42.3438 15.2969 41.8906 15.75C41.4375 16.1875 41.0391 16.7344 40.6953 17.3906V24H37.7188V12.1641H40.6953V14.3906C41.1016 13.6875 41.5781 13.1016 42.125 12.6328C42.6875 12.1641 43.3203 11.9297 44.0234 11.9297C44.4453 11.9297 44.8281 12 45.1719 12.1406V15.4922ZM52.6484 11.8594C53.8047 11.8594 54.7969 12.1094 55.625 12.6094C56.4688 13.1094 57.1094 13.8047 57.5469 14.6953C58 15.5703 58.2266 16.5859 58.2266 17.7422V19.0078H49.6484C49.8047 19.8047 50.1953 20.4453 50.8203 20.9297C51.4453 21.4141 52.2109 21.6562 53.1172 21.6562C53.9766 21.6562 54.7578 21.4844 55.4609 21.1406C56.1641 20.7969 56.7266 20.4453 57.1484 20.0859L57.125 22.8516C56.75 23.1797 56.1875 23.5156 55.4375 23.8594C54.7031 24.1875 53.8906 24.3516 53 24.3516C51.8281 24.3516 50.7578 24.0859 49.7891 23.5547C48.8359 23.0234 48.0703 22.2969 47.4922 21.375C46.9297 20.4531 46.6484 19.3984 46.6484 18.2109C46.6484 17.0547 46.9062 16 47.4219 15.0469C47.9375 14.0938 48.6484 13.3281 49.5547 12.75C50.4609 12.1562 51.4922 11.8594 52.6484 11.8594ZM52.5781 14.4609C51.8438 14.4609 51.2266 14.6875 50.7266 15.1406C50.2266 15.5938 49.8828 16.2031 49.6953 16.9688H55.3672C55.3047 16.125 54.9922 15.5 54.4297 15.0938C53.8672 14.6719 53.25 14.4609 52.5781 14.4609ZM72.3828 12.1641L66.7812 24H64.8828L59.3516 12.1641H62.8203L65.7969 19.5L68.9141 12.1641H72.3828Z" fill="#6D6E76"/>
</svg>
